<?xml version="1.0" encoding="UTF-8"?>
<svg version="1.1" viewBox="0 0 1600 1200" width="1024" height="768" xmlns="http://www.w3.org/2000/svg">
<path transform="translate(0)" d="m0 0h1600v1200h-1600z" fill="#FBFBFB"/>
<path transform="translate(1122,58)" d="m0 0h20l10 4 6 6 26 2 14 4 12 5v2l6 1 19 6 12 6 9 8 8 14 5 11 5 17 2 10 2 17v25l-4 21-6 15-10 11-10 5-5 1h-8l-2 4-6 8-8 8-13 8-12 5-21 6-36 6-13 11-12 16-9 15-9 19-5 13-5 12-9 25-10 30-10 34-6 23-7 25-9 34-7 22-12 36-7 19-6 16-4 12-1 6-2 28-4 32-3 13-4 23-4 19-3 19-3 14-6 38-3 29v43l4 28v2l4 1 9 7 8 11 4 9v11l-4 7-5 3-10 4-18 3-26 2h-33l-16-3-12-6-7-9-7-17-5-19-4-30-2-32v-41l-3 24-1 15v49l5 27 7 16 7 10 4 11v10l-4 10-2 2-40 5-11 1h-16l-16-2-14-6-11-8-7-7-4-7-1-10-15 2-2 1-13 1h-20l-11-4-25-14-6-5 3 6 3 12v10l-3 7-6 5-8 3-30 4h-42l-17-4-14-7-7-8-2-5v-14l9-29 8-30 5-20 5-17 6-21 6-19v-6l-8-11-1-2-13-1-42-1-44-4-44-6-48-8-32-8-22-7-28-11-21-10-23-13-16-10-19-14-12-11-9-9-6-9-3-6-2-8 1-7 5-5 7-1 32 15 21 9 20 7 24 6 16 3 10 1h36l22-3 23-5 20-7 23-12 16-11 9-7 11-9 10-9 15-14 14-15 9-10 7-8 1-1 2-15 3-6 2-1h10l8-9 1-2 2-19 3-12 4-8 2-1h8l9 4 2 2 1-29 3-9 5-4h12l10 4 4 3v-22l2-8 3-6 5-3h12l11 4 7 5 2-17 3-8 5-5 4-2h10l8 3 10 9 5 7 1-11 4-11 7-6h9l7 3 6 4 7 7 7 11 5-13 4-6 7-6 5-2h8l9 4 6 8 5 10 5 17 6-9 6-5 2-1h10l8 4 7 7 8 16 3 14 1 9h10l8-4 8-7 9-13 12-23 15-36 17-50 10-31 9-32 8-31 12-47 10-40 9-27 11-24 9-15 7-9 9-10 24-24 15-9 15-5 18-1 14-7z" fill="#C87F60"/>
<path transform="translate(1122,58)" d="m0 0h20l10 4 6 6 26 2 14 4 12 5v2l6 1 19 6 12 6 9 8 8 14 5 11 5 17 2 10 2 17v25l-4 21-6 15-10 11-10 5-5 1h-8l-2 4-6 8-8 8-13 8-12 5-21 6-36 6-13 11-12 16-9 15-9 19-5 13-5 12-9 25-10 30-10 34-6 23-7 25-9 34-7 22-12 36-7 19-6 16-4 12-1 6-2 28-4 32-3 13-4 23-4 19-3 19-3 14-6 38-3 29v43l4 28v2l4 1 9 7 8 11 4 9v11l-4 7-5 3-10 4-18 3-26 2h-33l-16-3-12-6-7-9-7-17-5-19-4-30-2-32v-41l-3 24-1 15v49l5 27 7 16 7 10 4 11v10l-4 10-2 2-40 5-11 1h-16l-16-2-14-6-11-8-7-7-4-7-1-10-15 2-2 1-13 1h-20l-11-4-25-14-6-5 3 6 3 12v10l-3 7-6 5-8 3-30 4h-42l-17-4-14-7-7-8-2-5v-14l9-29 8-30 5-20 5-17 6-21 6-19v-6l-8-11-1-2-13-1-42-1-44-4-44-6-48-8-32-8-22-7-28-11-21-10-23-13-16-10-19-14-12-11-9-9-6-9-3-6-2-8 1-7 5-5 7-1 32 15 21 9 20 7 24 6 16 3 10 1h36l22-3 23-5 20-7 23-12 16-11 9-7 11-9 10-9 15-14 14-15 9-10 7-8 1-1 2-15 3-6 2-1h10l8-9 1-2 2-19 3-12 4-8 2-1h8l9 4 2 2 1-29 3-9 5-4h12l10 4 4 3v-22l2-8 3-6 5-3h12l11 4 7 5 2-17 3-8 5-5 4-2h10l8 3 10 9 5 7 1-11 4-11 7-6h9l7 3 6 4 7 7 7 11 5-13 4-6 7-6 5-2h8l9 4 6 8 5 10 5 17 6-9 6-5 2-1h10l8 4 7 7 8 16 3 14 1 9h10l8-4 8-7 9-13 12-23 15-36 17-50 10-31 9-32 8-31 12-47 10-40 9-27 11-24 9-15 7-9 9-10 24-24 15-9 15-5 18-1 14-7zm1 7-12 4-3 2v2l14 7 9 8 1 4-10-4-6-4-16-5h-20l-10 3-11 6v2l-5 2-10 9-9 11-9 10-5 5v2h-2l-10 16-7 16-5 11-7 21-7 25-17 69-8 32-7 24-4 15-9 30-10 28-13 32-11 24-13 23-8 10-7 7-9 4-4 1h-8l-11-3-16-8-24-13-16-6-16-4-14-2h-27l-21 3-18 4-25 8-16 7-21 11-18 12-17 13-11 9-12 10-7 8-5 5-11 12v2h-2l-8 11-2 4h-2l-8 11-11 14-8 10v2h-2l-9 11-8 8-7 8-9 8-17 13-18 12-21 12-16 8-16 6-24 5-18 2h-30l-24-3-26-6-23-8-16-6-15-7-26-12h-3v5l6 10 5 7h2l2 4 11 11 8 7 15 11 21 13 16 8 16 7 35 12 25 7 29 6 31 6 24 4 29 4 37 3h53l-2-5-9-16-13-27-6-17-4-20v-10l3-14 1-3 1 24 5 21 7 19 10 20 7 11 1 3h2l2 5 14 21 6 10 2 3v6l-7 20-7 25-9 36-5 17-6 23-6 17-1 8 6 9 13 8 9 2 1-13 4-6 4-3h10l5 3 3 4h2l3 12 2-3 4-12 6-8 4-2 9 1 9 6h3l4-4 6-2-2-9-7-16-3-2-38-1-7-1 3-3 29-10 20-9 5-2 14-29 10-26 4-13 4-18 1-7v-10l-2-14-7-21-10-19-6-11-11-16-12-18-11-18-4-7v-2l10 16 4 5 1 3h2l2 5 3 5h2l1 4h2l2 4 6 9h2l2 4 11 15 10 15 8 14 5 12 4 18 9 4 20 5 28 3h6v-13l-1-15v-42l3-28 6-39 3-25 1-5v25l2-3 8-21 5-6 2-1-5 21-9 33-4 23-2 17-1 17v32l2 29v40l-5 56-4 29 1 5 1 1v6l-2 6v12l3 8 7 8 8 5 9 3 11 2h15l-1-5v-10l4-6 2-2h8l6 2 2 4 5 9 2-1 3-8 4-4h8l5 3 3 6 2 1-1-10-6-9-9-6-12-6-9-3h-17l-4 1 2-5h16l12 3 10 5 3-1-7-15-4-17-1-10v-45l4-49 1-8-4 4-7 9-4 2 7-8 8-13 6-16 4-11 8-30 5-25 4-27 3-37 1-23v-19l-3-20-1-3h2l2 6h4v-2h2l2 18v47l-4 40-4 26-5 24-6 25-6 21 4 1v-2l10-3 7-3 13-7 7-4v-2l5-2v-2l4-2 9-9 5-4 7-8 5-5v-2l3-1 8-11 10-14 11-18 12-24 4-10 5-12 6-16 6-13 4-12 4-9 6-18 3-8 9-25 8-27 5-18 4-13 6-26 3-9 5-21 7-23 7-25 4-10 4-14 3-9 6-15 4-12 4-8 3-7 8-16 7-11 9-10 5-5 6-5v-1l-10 1-11 6-15 10v2l-4 2-6 5-9 11-6 9-5 12-4 9-4 13-1 1 1-11 5-19 5-11 5-9 12-14 12-10 14-8 2-1v-2l-18-5-16-7-14-7h-2v-2l6 1v-7l6 3 6 5 11 5 16 5 19 3 15 1h14l18-2 18-4 14-5 11-6 12-11 5-5v-2l3-1-2-1-58 2h-17l-17-3-12-5-11-8-8-11-7-15h-2l-8 16-4 1 5-18 5-8 10-5h7l4 2v5l-10 2 1 6 7 13 11 12 12 6 13 3 9 1h35l45-2 14-2 7-6 6-10 5-19 2-17v-10l-3-28-5-17-6-14-6-10-5-5-5-4-17-5-7-2-16-8-9-3-11-2-24-1-8-10-8-3z" fill="#3E242F"/>
<path transform="translate(1093,207)" d="m0 0h2l8 17 9 11 13 8 12 4 13 2h17l60-2-1 2h-2l-2 4-11 11-11 7-14 6-16 4-12 2-12 1h-14l-22-2-16-3-17-6-9-5-6-5-3-1v7l-6-1v2l6 2 21 10 18 6 5 1v2l-13 7-10 8-9 8-10 13-5 10-5 14-4 18v5l4-10 4-12 4-9 5-9 8-10 6-7 6-5h2v-2l20-13 10-4h6l-5 5-5 4-9 11-7 10-8 16-3 5-4 11-4 9-5 15-3 7-3 9-4 14-4 10-4 14-10 36-5 19-5 18-5 21-5 17-5 18-5 16-5 15-4 10-6 18-5 12-4 12-6 13-5 14-6 13-4 11-6 13-8 16-9 15-12 17-9 12h-2l-2 4-9 9-4 5-8 7-5 5h-2v2l-5 2v2l-9 5-14 8-12 4h-2v2l-4-1 7-26 8-33 5-29 4-37 1-11v-65l6-10 10-18 17-28 7-12 8-14 9-16 8-16 15-28 13-30 14-36 11-33 9-32 5-24 5-30 12-50 4-10 6-5 8-3 8-1 38-1 3-9z" fill="#E7AF7B"/>
<path transform="translate(767,432)" d="m0 0h8l9 4 6 8 5 10 5 17 6-9 6-5 2-1h10l8 4 7 7 8 16 3 14 1 9h10l7-2 2 1 3-1 1 4 5-5h2l2-4 3-3-1 4-10 11 1 2-9 4-4 1h-8l-11-3-16-8-24-13-16-6-16-4-14-2h-27l-21 3-18 4-25 8-16 7-21 11-18 12-17 13-22 18-7 8-4 2-2 4-10 11-1 2h-2l-2 5-8 10h-2l-2 5-10 12-7 9-8 11h-2l-2 4-12 13-11 12-13 11-15 11-15 10-21 12-16 8-16 6-24 5-18 2h-30l-24-3-26-6-23-8-16-6-15-7-26-12-3-1 2 6 5 9 4 5v2h2l7 8 9 8v2l4 2 13 10 19 12 18 10 19 8 35 12 25 7 29 6 31 6 24 4 29 4 37 3 53 1-10-17-11-22-9-22-4-17-1-7v-10l3-14 2-4h1l1 25 5 21 7 19 10 20 7 11v3h2l7 11 10 15 6 10 2 3v6l-7 20-7 25-9 36-5 17-6 23-6 17-1 8 6 9 12 7 9 3v-6l4 1-2 1v4l6 2 8 4-1 2h-9l-4-1v2l-8-1-13-4-10-6-6-7-2-5v-14l9-29 8-30 5-20 5-17 6-21 6-19v-6l-8-11-1-2-13-1-42-1-44-4-44-6-48-8-32-8-22-7-28-11-21-10-23-13-16-10-19-14-12-11-9-9-6-9-3-6-2-8 1-7 5-5 7-1 32 15 21 9 20 7 24 6 16 3 10 1h36l22-3 23-5 20-7 23-12 16-11 9-7 11-9 10-9 15-14 14-15 9-10 7-8 1-1 2-15 3-6 2-1h10l8-9 1-2 2-19 3-12 4-8 2-1h8l9 4 2 2 1-29 3-9 5-4h12l10 4 4 3v-22l2-8 3-6 5-3h12l11 4 7 5 2-17 3-8 5-5 4-2h10l8 3 10 9 5 7 1-11 4-11 7-6h9l7 3 6 4 7 7 7 11 5-13 4-6 7-6z" fill="#4A2B37"/>
<path transform="translate(775,668)" d="m0 0h2l-1 10-12 44-4 23-2 17-1 17v32l2 29v40l-5 56-4 29 1 5 1 1v6l-2 6v12l3 8 7 8 10 5 6 2 11 2 15 1-2-5v-10l4-6 3-3h8l6 3 8 12 3-8 5-5h8l6 4 3 6-1-9-6-9-6-4 3-10 5 5 3 5 2 4 5 6h2l2 6v10l-4 10-2 2-40 5-11 1h-16l-16-2-14-6-11-8-7-7-4-7-1-10-15 2-2 1-13 1h-20l-11-4-25-14-6-5 3 6 3 12v10l-3 7-6 5-8 3-30 4h-42l-1-3h13l-11-6h-3l1-5-2-2v-7l4-6 5-4h10l5 3 3 3v2h2l4 9 4-12 7-9 4-2 9 1 9 6 3 1 2-4 5-2h3l-6-16-5-10-39-1-7-2 1-3 14-5 19-7 18-8 4-1 14-29 10-26 4-13 4-18 1-7v-10l-2-14-7-21-10-19-6-11-11-16-12-18-11-18-4-7 1-3 12 18 3 4v3h2l5 8v2h2l1 4h2l8 11v2h2l12 16 12 18 8 14 5 12 4 18 15 5 20 4 27 3-2-28v-42l3-28 6-39 3-25 2-9h1v26l8-21z" fill="#3E242F"/>
<path transform="translate(977,700)" d="m0 0 1 4-2 9-6 48-5 25-6 32-4 26-3 26v39l3 22 3 12v5h-14l-16 2-13 4-6 2 1 4 13-5 11-2h21l10 4h5l10 10 7 14 2 5v-8l-4-10-3-4v-2l4 2 7 14v11l-4 7-5 3-10 4-13 2h-5v-3l6-3h-6l-3-2v2l-3 1h-14l-1-2v-9l1-2h2v-2l5-1 5 4 3 3 1-2 2-1-2-5-6-5-9-1-5 4-4 10-1 10h-23l-11-1-10-4-6-5-7-10-6-15-5-19-4-25v-15h1l5 32 6 17 2 7h2l-3-12-4-23-1-25 2-22 5-30 1-16 18-14 8-7 10-9 11-12 11-14 13-18 13-20 10-18 8-15z" fill="#C87F60"/>
<path transform="translate(1116,293)" d="m0 0h6l-5 5-5 4-9 11-7 10-8 16-3 5-4 11-4 9-5 15-3 7-3 9-4 14-4 10-4 14-10 36-5 19-5 18-5 21-5 17-5 18-5 16-5 15-4 10-6 18-5 12-4 12-6 13-5 14-6 13-4 11-6 13-8 16-9 15-6 8-1-2h-11l-13-4-4-2-7-9-3-4v-14l5-22 8-22 13-27 10-21 8-14 12-18 12-21 11-18 13-23 10-19 10-25 12-34 9-28 10-36 3-11 4-10 4-12 4-9 5-9 8-10 6-7 6-5h2v-2l20-13z" fill="#FBCC96"/>
<path transform="translate(644,971)" d="m0 0 11 7 21 12 11 4h20l13-1 2-1 15-1 3 12 6 8 9 8 16 8 8 2v1h-175l-49-2-141-13-89-10-45-4-5-3v-3l6-2 90-5 42-3 66-3 41-1 2 1 1 13 4 8 7 6 11 5 17 4h42l30-4 10-4 5-6 1-4v-10l-4-14z" fill="#D4D1CC"/>
<path transform="translate(860,618)" d="m0 0h2l3 6h2l1-2h2l2 9 1 9v47l-4 40-4 26-5 24-6 25-6 21 3 1v-2l14-5 16-9 4-3h3v-2l5-2-1 3 6-7 3-2h3l1-4 4-1 2-5 5-1v-2l4-2 5-5-1 4h-2l1 3-8 11-7 9-1 4-7 7-8 7-20 15-1 16-6 37-1 19 1 21 6 33v2h-2l-7-19-2-5-4-26v9l5 29 6 21 7 14 7 8 7 3 5 2 11 1 23 1v-10l4-10 6-5 9 1 8 7 1 5-4 2-3-1v-2l-4-2-4-1h-2v2h-2v13l17-1v-2l9 1 2 2-7 2 3 2h-4v2l-26 2h-33l-16-3-12-6-7-9-7-17-5-19-4-30-2-32v-41l-3 24-1 15v49l5 27 7 16 7 10 1 7-5-5-4-5-2-6-4-4-3 7-5-1-10-5-9-3h-21l2-5 2-1h14l12 3 10 5h2l-7-15-4-17-1-10v-45l4-49 1-7-8 11-4 4-3-1 7-8 8-13 6-16 4-11 8-30 5-25 4-27 3-37 1-23v-19zm33 181 2 1-2 1z" fill="#3C232E"/>
<path transform="translate(767,432)" d="m0 0h8l9 4 6 8 5 10 5 17 6-9 6-5 2-1h10l8 4 7 7 8 16 3 14 1 9h10l7-2 2 1 3-1 1 4 5-5h2l2-4 3-3-1 4-10 11 1 2-9 4-4 1h-8l-11-3-16-8-24-13-16-6-16-4-14-2h-27l-21 3-18 4-25 8-16 7-17 9h-2l-1-2v-6l-2-1 13-8 11-6h4l2-1 1-29 3-6 4-3 6-1 7 3 6 5 8 10 4 7v2h-3v2l7-1 3-2 2-23 3-8 4-3 7 1 7 4-4-5-4-2-10-1 3-3h8l2-1 9 6 7 7 7 11 5-13 4-6 7-6z" fill="#492A37"/>
<path transform="translate(1122,58)" d="m0 0h20l10 4 6 6 26 2 14 4 12 5v2l6 1 19 6 8 4v3l-9-3-4 1 9 3 8 6 6 7 3 5v3h-3l-4-8-5-5-5-4-17-5-7-2-16-8-9-3-11-2-24-1-8-10-8-3h-16l-15 5v2l5 1 9 5 10 9v4l-8-2-8-5-16-5h-20l-10 3-9 5h-2v2l-6 4-8 7-9 11-9 10-4 2-2 5h-2l-2 5-7 11-7 16-5 11-7 21-7 25-17 69-8 32-7 24-4 15-9 30-10 28-13 32-11 24-13 23-8 10-7 7-3-1 7-7 4-6-4 5-4 4h-2l-1 3-2-1 1-2-1-2-5 1 3-5 7-6 9-13 12-23 15-36 17-50 10-31 9-32 8-31 12-47 10-40 9-27 11-24 9-15 7-9 9-10 24-24 15-9 15-5 18-1 14-7z" fill="#3D242F"/>
<path transform="translate(706,858)" d="m0 0 7 1 27 6 8 1 1 1-1 26-3 28-2 9-6 9-1 3 5-1v11l-1 10-3 3-5-4-2 9 4 1 1-2 2 4v10l-7 2h-4l-4-9-4-5-6-3h-10l-1 3h-2v7l3 7v3l-15-1-4-16-7-23-5-13v-13l5-12 10-17 12-21z" fill="#C87E5F"/>
<path transform="translate(710,434)" d="m0 0h9l3 1-1 2h-8l-1 1 10 2 6 5v2l-10-4-6 1-3 5-2 12-1 15-6 4-5-1v-2h3l-8-13-7-8-6-4-7-1-6 3-3 6-1 29-5 3v-2l-22 12-3 2 2 7v3l-16 10-21 16-22 18-7 8-4 2-2 4-10 11-1 2h-2l-2 5-8 10h-2l-2 5-10 12-7 9-8 11h-2l-2 4-12 13-11 12-13 11-15 11-15 10-21 12-5 1 2-4 5-4 2-1 1-3-3-1 5-5 13-8 15-11 13-11 8-7 16-15 14-15 9-10 7-8 1-1 2-15 3-6 2-1h10l8-9 1-2 2-19 3-12 4-8 2-1h8l9 4 2 2 1-29 3-9 5-4h12l10 4 4 3v-22l2-8 3-6 5-3h12l11 4 7 5 2-17 3-8 5-5 4-2h10l8 3 10 9 5 7 1-11 4-11z" fill="#3E242F"/>
<path transform="translate(775,668)" d="m0 0h2l-1 10-12 44-4 23-2 17-1 17v32l2 29v40l-5 56-4 29v5h-2v10l-3 7-1 4-2-1-1-4-2 2-1-20-1 5-3-2-5-1 3-9 3 1v2l4-2 2-21-5 1 1-4 6-11 3-23 2-29 1-22h-12l-22-2-23-5-13-4-1 10-4 15-2-1-7 21-4 8-5 11-5 13-5 7-1-3 5-12 3-6 3-9 4-10 7-21-1-8 3-14 1-7v-10l-2-14-7-21-10-19-6-11-11-16-12-18-11-18-4-7 1-3 12 18 3 4v3h2l5 8v2h2l1 4h2l8 11v2h2l12 16 12 18 8 14 5 12 4 18 15 5 20 4 27 3-2-28v-42l3-28 6-39 3-25 2-9h1v26l8-21z" fill="#4A2B37"/>
<path transform="translate(997,982)" d="m0 0 45 3 35 4 20 4 14 5 3 3-1 2 3 1-3 2-28 5-39 5-34 3-21 1-37 1-4 1-53 3-19 1h-17l1-4 1-3 1-19 2-2 3 2 9 3 11 3 8 1h33l26-2 17-2 3 1 11-4 5-5 3-12z" fill="#E1E0DD"/>
<path transform="translate(515,981)" d="m0 0 7 1 1 13 4 8 7 6-4 1-6-6v-2h-2l-5-10v-4h-2l-2-2-7 8-5 5-4 2v3l-8 6-1 3 7 2 2 4h-13l-43-3-17-1h-10l-89-10-45-4-5-3v-3l6-2 90-5 42-3 66-3z" fill="#E0DFDC"/>
<path transform="translate(1093,207)" d="m0 0h2l8 17 9 11 13 8 12 4 13 2h17l60-2-1 2h-2l-2 4-11 11-11 7-14 6-16 4-12 2-12 1h-14l-22-2-16-3-17-6-8-4 1-2-2-1v-2l27-4 6-1-3-8-8-11-5-9 1-11z" fill="#C97F60"/>
<path transform="translate(1089,101)" d="m0 0h15l10 5 7 8 6 13 2 7v19l-4 11-6 8-6 5-10 4h-15l-10-3-10-6-6-8-4-8-1-6v-14l4-12 7-10 8-7 10-5z" fill="#3B222D"/>
<path transform="translate(924,775)" d="m0 0 1 3-3 1 1 3-8 11-7 9-1 4-7 7-8 7-20 15-1 16-6 37-1 19 1 21 6 33v2h-2l-7-19-2-5-4-26v9l5 29 6 21 7 14 7 8 7 3 5 2 11 1 23 1v-10l4-10 6-5 9 1 8 7 1 5-4 2-3-1v-2l-4-2-4-1h-2v2h-2v13l17-1v-2l9 1 2 2-7 2 3 2h-4v2l-26 2h-33l-16-3-12-6-7-9-7-17-5-19-4-30-2-32v-35l1-9h2v-2h3v-3l7-4 6-3 1-2 12-6-1-2-4-2v-2l-2-1h2l1-4 11-4 4-2-3-1 1-2h2l1-5 5-2-1 3 6-7 3-2h3l1-4 4-1 2-5 5-1v-2l4-2zm-31 24 2 1-2 1z" fill="#482936"/>
<path transform="translate(679,842)" d="m0 0 10 2 20 5 16 2 24 2v14l-12-2-24-5-7-2-2 5-11 20-13 22-7 14-1 3v13l9 25 5 18 1 9-7-1-23-11-13-9-6-7-1-7 11-23 12-25 9-24 7-24z" fill="#864F52"/>
<path transform="translate(1230,91)" d="m0 0 8 1 5 2h4l9 8 8 14 5 11 5 17 2 10 2 17v25l-4 21-6 15-10 11-10 5-5 1h-8l-2 4-6 8-8 8-13 8-12 5-21 6-22 4h-7l-3-2 1-1-3-1-1 2h-6l-3 1-16-2-26-7-10-4-7-4v-2h-5l-5-6 7 2 9 6 22 7 16 3 22 2h10l6-1-6-1v-1l18-2 18-4 14-5 11-6 12-11 5-6 1-1-58 2h-17l-17-3-12-5-11-8-8-10-7-14v-3h-2l-2 5-6 12h-4l1-8 4-12 5-7 10-5h7l5 3v5l-1 1-10 1 4 10 6 10 9 10 12 6 13 3 9 1h35l45-2 14-2 6-5 6-10 5-19 2-17v-10l-3-28-5-17-6-15h2l-4-8-8-9-10-5-5-2z" fill="#4B2B37"/>
<path transform="translate(990,666)" d="m0 0 2 2-2 34-4 28v13l-5 23-3 19-3 14-3 19-2 12-4 27-2 20v43l4 28v2l4 1 9 7 2 4 2 5 4 8 1 3v9l-3-3-6-14-9-10-2-2-7-1-8-3h-21l-14 3-7 3h-3l-1-4 11-5 14-3 10-1h9l5 1-5-22-2-17v-39l4-33 8-47 4-18 3-17 5-42 2-9 1-8 11-27z" fill="#402530"/>
<path transform="translate(634,729)" d="m0 0 11 1 26 3h48l17-3 5-1-5 34-2 22-11-1-18-4-21-9-19-11-11-9-20-20z" fill="#E8AF7B"/>
<path transform="translate(873,643)" d="m0 0h1l2 29 1 97 24-1 18-2 6-1v4h-2l-2 4-9 9-4 5-8 7-5 5h-2v2l-5 2v2l-9 5-14 8-12 4h-2v2l-4-1 7-26 8-33 5-29 4-37 1-11z" fill="#C87E5F"/>
<path transform="translate(539,789)" d="m0 0 4 2 3 5v3h2l7 11 10 15 6 10 2 3v6l-7 20-7 25-9 36-5 17-6 23-6 17-1 8 6 9 12 7 9 3v-6l4 1-2 1v4l6 2 8 4-1 2h-9l-4-1v2l-8-1-13-4-10-6-6-7-2-5v-14l9-29 8-30 5-20 5-17 6-21 6-19v-6l-8-11-1-2-13-1-42-1-4-1v-2l58 1v-4l-2-1 1-2 4 1-9-14-5-9z" fill="#492A36"/>
<path transform="translate(860,618)" d="m0 0h2l3 6h2l1-2h2l2 9 1 9v47l-4 40-4 26-5 24-6 25-6 21-3 2-1-3-3 3h-3l6-22-1-6 5-18 6-26 4-25 3-31 2-37v-19z" fill="#4A2A37"/>
<path transform="translate(852,866)" d="m0 0h1l2 45 3 24 4 20 5 17 7 14 7 8 7 3 5 2 11 1 23 1v-10l4-10 6-5 9 1 8 7 1 5-4 2-3-1v-2l-4-2-4-1h-2v2h-2v13l17-1v-2l9 1 2 2-7 2 3 2h-4v2l-26 2h-33l-16-3-12-6-7-9-7-17-5-19-2-15v-11l1-9 3 1v-10l-1-19v-19z" fill="#422631"/>
<path transform="translate(1269,165)" d="m0 0h1l1 12v20l-3 17-4 12-7 11-8 6-11 3h-6l-7 2-58 2h-17l-17-3-12-5-11-8-8-10-7-14v-3h-2l-2 5-6 12h-4l1-8 4-12 5-7 10-5h7l5 3v5l-1 1-10 1 4 10 6 10 9 10 12 6 13 3 9 1h35l45-2 14-2 6-5 6-10 5-19 2-17v-17z" fill="#3B222E"/>
<path transform="translate(963,816)" d="m0 0 4 1-1 19-4 27-1 22-1 24 1 13 3 15 3 2 1 11 4 1 9 7 2 4 2 5 4 8 1 3v9l-3-3-6-14-9-10-2-2-7-1-8-3h-21l-14 3-7 3h-3l-1-4 11-5 14-3 10-1h9l5 1-5-22-1-10v-40l3-1v-12l3-24 2-14z" fill="#492A37"/>
<path transform="translate(967,957)" d="m0 0 4 1 9 9 7 14 2 5v-8l-4-10-3-4v-2l4 2 7 14v11l-4 7-5 3-10 4-13 2h-5v-3l6-3h-6l-3-2v2l-3 1h-14l-1-2v-9l1-2h2v-2l5-1 5 4 3 3 1-2 3-2 2-9 4-5 2-1h7l6 4 4 5 2 3-1-7-7-11-8-7z" fill="#432731"/>
<path transform="translate(710,434)" d="m0 0h9l3 1-1 2h-8l-1 1 10 2 6 5v2l-10-4-6 1-3 5-2 12-1 15-6 4-5-1v-2h3l-8-13-7-8-6-4-7-1-6 3-3 6-1 29-5 3-3-5-8-7-5-4 2-2-5-3 2-2 6 1 7 5 2-17 3-8 5-5 4-2h10l8 3 10 9 5 7 1-11 4-11z" fill="#422630"/>
<path transform="translate(868,836)" d="m0 0h4l-1 15-6 37-1 19 1 21 6 33v2h-2l-7-19-2-5-4-26-2-2-1-20v-19l1-25 1-4 12-6z" fill="#864F52"/>
<path transform="translate(1265,232)" d="m0 0 1 2-7 8-7 4-9 3h-8l-2 4-6 8-8 8-13 8-12 5-21 6-22 4h-7l-3-2 1-1-3-1-1 2h-6l-3 1-16-2-26-7-10-4-7-4v-2h-5l-5-6 7 2 9 6 22 7 16 3 22 2h10l6-1-6-1v-1l18-2 18-4 14-5 11-6 12-11 5-6 9-4h11l11-4 7-6z" fill="#492A36"/>
<path transform="translate(539,789)" d="m0 0 4 2 3 5v3h2l7 11 10 15 6 10 2 3v6l-7 20-7 25-9 36-5 17-1 5h-2l-1-6 2-4v-4h2l-1-3 4-10 1-12 3-5v-2h2l-1-5 2-5 1-7 1-2 1-10 2-6-2 1v3l-5 3 4-16 4-12v-6l-8-11-1-2-13-1-42-1-4-1v-2l58 1v-4l-2-1 1-2 4 1-9-14-5-9z" fill="#3E242F"/>
<path transform="translate(767,432)" d="m0 0h8l9 4 6 8 5 10 5 17 6-9 6-5 2-1h10l3 1 4 8 3 3v3h-2l-5-6-9-1-5 5-8 11-5 5-8-4-7-24-5-9-4-5-5-2-6 1-5 5-2 1v-2l-3 1-3-1 2-5 8-7z" fill="#3C232E"/>
<path transform="translate(844,849)" d="m0 0h1v43l2 32 4 30 6 21 6 15 7 9 2 2-4-1h-3l-1 19-4 2 2-8v-10l-5-13-7-10-6-14-5-27v-49l2-25 2-14z" fill="#F6F4F2"/>
<path transform="translate(767,440)" d="m0 0 7 1 5 4 6 10 5 15 1 10-28-6-8-2v-8l3-15 5-7z" fill="#C87E60"/>
<path transform="translate(670,450)" d="m0 0 7 1 9 7 8 10 4 7v2l-23 6-12 4h-2l-1-4v-23l3-6 4-3z" fill="#C87E5F"/>
<path transform="translate(1042,257)" d="m0 0 4 2 3 4v2l4 2v3l6 2 21 10 18 6 5 1v2l-13 7-5 4-5 2-4 1-14-15-7-7-9-11-5-9v-5z" fill="#C67E60"/>
<path transform="translate(990,666)" d="m0 0 2 2-2 34-4 28v13l-2-2-3 11-3 7h-4v-20l-2 2 2-18 2-15 2-12 11-27z" fill="#482936"/>
<path transform="translate(818,463)" d="m0 0 9 1 6 7 5 9 3 21-2 2-22-12-15-7 2-4 11-15z" fill="#C87F60"/>
<path transform="translate(1073,388)" d="m0 0h4l-3 9-5 17-4 11-6 22h2l-4 16-9 32-4 16-2-2-5 14-5 15h-1v-8l4-16 5-21 9-34 8-26 10-30 3-6 1-6h2z" fill="#492A36"/>
<path transform="translate(714,442)" d="m0 0 7 1 5 3 9 11 7 12v3l-22 1-14 2v-14l2-12 4-6z" fill="#C87F60"/>
<path transform="translate(624,473)" d="m0 0h10l11 7 4 3v2l4 2 2 3-22 12-6 4h-2v2h-3v2h-2l-1-13v-16l3-7z" fill="#C77D5F"/>
<path transform="translate(968,735)" d="m0 0h1l1 9-2 15-7 33-5 13-5 8-3 2-8-4-1-4 10-18 6-14 9-29 3-10z" fill="#864F52"/>
<path transform="translate(1088,112)" d="m0 0h11v2l-10 4-8 9-4 10v16l4 10 4 6 5 6-9-2-8-6-5-6-4-10v-12l3-9 6-8 8-7z" fill="#F7F5F3"/>
<path transform="translate(637,929)" d="m0 0 1 2h-2l-2 6-6 11-1 7-1 1-38-1-7-2 1-3 14-5 19-7 18-8z" fill="#854E51"/>
<path transform="translate(859,838)" d="m0 0 1 4-5 1-1 29h-2v24l1 20-1 4h-2l-2 11h-1l-1-7-2-32v-35l1-9h2v-2h3v-3l7-4z" fill="#4E2E38"/>
<path transform="translate(1080,79)" d="m0 0h20l11 3 10 5 5 3 5 2v3l-3 1-1 3-16-9-18-5h-17l-11 2v2l-5 1v2l-8 7-3 1v2h-2l-2 4-11 12-5 6-5 5-8 11-10 18-4 8-1-4 11-22 7-11h2l2-5 8-7 18-21 8-6h2v-2l13-7z" fill="#E6BB96"/>
<path transform="translate(937,976)" d="m0 0 9 1 8 7 1 5-4 2-3-1v-2l-4-2-4-1h-2v2h-2v13l17-1v-2l9 1 2 2-7 2 3 2h-4v2l-11 1h-39l1-2h4v-2h-7v-1h19l4-1v-10l4-10z" fill="#3E242F"/>
<path transform="translate(710,434)" d="m0 0h9l3 1-1 2h-8l-1 1 10 2 6 5v2l-10-4-6 1-3 5-2 12-1 15-6 4-5-1v-2h3l-8-13-1-5 3-1 4 1 2 3 1-11 4-11z" fill="#3E242F"/>
<path transform="translate(1154,79)" d="m0 0h25l15 3 22 11 17 4 9 4 5 4 6 9 7 15 3 9v5l-2-3-5-14-7-10-11-7-16-8-14-8-14-6-15-4-7-1-17-1z" fill="#F1BE8D"/>
<path transform="translate(953,875)" d="m0 0h1l1 31 1 10v9l2 6 3 14v5l-1 1 8 5-1 2-12-4h-21l-14 3-7 3h-3l-1-4 11-5 14-3 10-1h9l5 1-5-22-1-10v-40z" fill="#3A212D"/>
<path transform="translate(722,435)" d="m0 0 9 5 8 8 7 11 5-13 4-1 3 1 1 3-3 15-4 1-2 3-6-1-4-4-2 1-7-11-5-6h2l-4-5-4-2-10-1 3-3h8z" fill="#4C2C38"/>
<path transform="translate(380,798)" d="m0 0 11 1 35 6 29 4 37 3 3 1 50 1-3 2h-58l-32-2-12-2-1-1-13-2-32-6-10-2-4-1z" fill="#3B222E"/>
<path transform="translate(178,688)" d="m0 0 2 2 6 12 5 6v2h2l7 8 9 8v2l4 2 13 10 19 12 18 10 19 8 5 2 1 3-9-2-24-10-7-5-12-6-15-11-8-6-11-9-5-5v-2h-2v-2l-4-2-4-5v-2h-2l-8-16z" fill="#3A212D"/>
<path transform="translate(557,534)" d="m0 0h8l-2 1v2l7 1 2 4-5 1 4 3-2 4-9 8-7 8-2 1-1-10-1-7 3-10 3-5z" fill="#4C2C37"/>
<path transform="translate(588,507)" d="m0 0h6l12 6 3 3-2 4-16 12-5 4-2-1 1-25z" fill="#C77E60"/>
<path transform="translate(609,988)" d="m0 0h7l6 5 1 3v10l-4 4-20 1 3-11 5-10z" fill="#F7F5F4"/>
<path transform="translate(213,700)" d="m0 0 7 2 10 4 27 10 12 3 7 1 3 2h7v2l21 3 38 1v2l-2 1h-30l-24-3-26-6-23-8-16-6-8-4z" fill="#3D232F"/>
<path transform="translate(1265,232)" d="m0 0 1 2-7 8-7 4-9 3h-8l-2 4-6 8-8 8-4 3-9-1 2-4 11-12 5-6 9-4h11l11-4 7-6z" fill="#492A35"/>
<path transform="translate(607,699)" d="m0 0 3 3 10 15 3 4v3h2l5 8v2h2l1 4h2l8 11v2h2l12 16 5 7v4h-4v-2l-5-1-8-14-11-16-12-18-11-18-4-7z" fill="#3F2430"/>
<path transform="translate(776,433)" d="m0 0 6 2 5 4 6 11 4 10 2 8-1 4-1 5h-3l-8-24-5-8v-2l-4-2-7-3v-2l5-1z" fill="#4C2C37"/>
<path transform="translate(571,991)" d="m0 0h5l7 6 2 5v8l-1 2h-10l-5-2-4-6v-7l4-5z" fill="#E0D9D3"/>
<path transform="translate(181,678)" d="m0 0 9 3 23 11 21 9 20 7 24 6 6 1v2l3 1-3 1-18-4-18-5-6-3-10-3-27-12-24-12z" fill="#472A32"/>
<path transform="translate(605,981)" d="m0 0 7 1 1 2-7 3-4 9h2l-2 7-2-1-3 8-2-2h-4v5l-5 1-2-4 3-3v-9l2-2 3 7 4-12 7-9z" fill="#4B2B38"/>
<path transform="translate(908,445)" d="m0 0 2 1-1 2 3-1-1 5-13 26-4 5-1-3-2 2-2-5 11-23 4-1z" fill="#482936"/>
<path transform="translate(1090,312)" d="m0 0 2 1-9 14-8 7-7 8-3 4h-2l1-7 1-3-2 1 2-4 7-9 5-5v2l10-7z" fill="#E7AF7B"/>
<path transform="translate(1225,247)" d="m0 0 2 1-3 1-2 4-11 11-11 7-14 6-16 4-6 1h-10v-1l22-4 18-6 9-5h3v-2l4-2 7-8 2-3h-52v-2z" fill="#D7986F"/>
<path transform="translate(827,458)" d="m0 0 5 2 7 7 8 16 1 7h-2l1 2v8h-2l-4-10-2 1-3-13-3-5v-5l-5-6z" fill="#4C2C37"/>
<path transform="translate(306,788)" d="m0 0 12 3 29 8 29 6 24 4 1 3-17-2-27-5-28-7-22-7z" fill="#492B33"/>
<path transform="translate(1101,123)" d="m0 0h8l4 4v9l-4 5h-8l-5-6v-6z" fill="#F9F7F6"/>
<path transform="translate(539,951)" d="m0 0h2v7l-8 24-1 8 6 9 12 7 7 3-2 2-9-2-9-6-6-7-2-3v-10l6-23z" fill="#3C232F"/>
<path transform="translate(585,498)" d="m0 0 3 1 12 3 10 7-1 3-13-7h-8v3h-2l-1 27h-1l-1-9-2-1 1-7-2-2-2-10 4-6z" fill="#4D2C38"/>
<path transform="translate(944,947)" d="m0 0h15v2l-4 2h-4l1 2-18 1-14 3-7 3h-3l-1-4 11-5 14-3z" fill="#55313C"/>
<path transform="translate(808 1e3)" d="m0 0h6l5 4v3h2v9l-2 1h-10l-4-5v-8z" fill="#E5AE7D"/>
<path transform="translate(964,977)" d="m0 0h5l5 5 2 3v9l-4 3h-5l-5-8-1-9z" fill="#F8F5F3"/>
<path transform="translate(1116,293)" d="m0 0h6l-5 5-5 4-9 11-7 10-5 8-2-1 2-6 7-11 9-11-10 4h-3l4-4 8-5z" fill="#F0E9E2"/>
<path transform="translate(940,984)" d="m0 0 4 1 5 5 4 9-3 1h-14l-1-2v-9l1-2h2v-2z" fill="#DED5CD"/>
<path transform="translate(614,993)" d="m0 0h2l4 8-2 7 1 2-16 1v-7h2l1-7 4-3 1 4 5-1z" fill="#E1E0DD"/>
<path transform="translate(1081,82)" d="m0 0h17l15 4 9 4 8 1 2 3-4 2-1 3-16-9-18-5-17-1v-1z" fill="#E8AF7B"/>
<path transform="translate(515,700)" d="m0 0h1l1 25 5 21 4 12v2l-3-1-7-21-4-15-1-2v-9l3-11z" fill="#3F2530"/>
<path transform="translate(691,458)" d="m0 0h3l4 4-1 5-1 2 7-2 2-9h1v18l-6 4-5-1v-2h3l-8-13-1-5z" fill="#3A212D"/>
<path transform="translate(1080,79)" d="m0 0h20l11 3 10 5 5 4-6-1-13-5-9-2h-22v2l-8 1 2-2 3-1-1-2z" fill="#F5C390"/>
<path transform="translate(1210,93)" d="m0 0 7 2 9 3 14 5 9 9v2l3 1-1 3-5-4-10-6-25-13z" fill="#E8AF7B"/>
<path transform="translate(615,514)" d="m0 0 3 1v5 3l-14 10-5 3-5-2 5-6 10-7 2-2h4l-1-4z" fill="#472936"/>
<path transform="translate(840,1006)" d="m0 0 5 2 2 3v7l-3 3h-10v-6l3-7z" fill="#F6F3F1"/>
<path transform="translate(755,711)" d="m0 0h1l-1 16-4 24-3 40h-1v-32l4-28 3-19z" fill="#462833"/>
<path transform="translate(801,971)" d="m0 0h14l12 3 3 3-1 3-11-3h-21l2-5z" fill="#4C2C38"/>
<path transform="translate(710,441)" d="m0 0 4 1-4 5-2 6-1 8h-2l-2 8h-7l2-6 1-12h2v7h3v-12h2l2-4z" fill="#442831"/>
<path transform="translate(1123,65)" d="m0 0h16l8 3 6 8-1 2-5-6-6-3h-16l-11 2 5 5-6-1-5-2v-2l8-4z" fill="#E7BF9B"/>
<path transform="translate(969,701)" d="m0 0h5l-2 4-8 17-7 11-5 8h-2l-1 4-4 4 2-5 10-18 8-15z" fill="#492A37"/>
<path transform="translate(632,990)" d="m0 0h6l3 3 1 9-4 4-6 1v-8l-2-8z" fill="#F1E9E3"/>
<path transform="translate(860,618)" d="m0 0h2l3 9 1 14v27l-1 10-2 1v-38z" fill="#402530"/>
<path transform="translate(1098,280)" d="m0 0 12 1 22 2 24 1-4 2-6 1h-10l-22-2-16-3z" fill="#3E242F"/>
<path transform="translate(840,489)" d="m0 0 3 2 2 9 1-2v-8l3 1 2 15 10 1-1 2h-9l-6-3-2 1-3-2z" fill="#3F252F"/>
<path transform="translate(961,884)" d="m0 0h1l1 25 3 24v5l-3-1-2-13-1-4-1-12 1-23z" fill="#3D242F"/>
<path transform="translate(1224,249)" d="m0 0h3l-2 7h-2l-1 2-5 3-1 2 3-2 2 3-3 3-3 5-9-1 2-4 11-12z" fill="#3F2430"/>
<path transform="translate(1030,118)" d="m0 0h3l-2 4-5 4-10 14-10 18-4 8-1-4 11-22 7-11h2l2-5z" fill="#E8B182"/>
<path transform="translate(1154,79)" d="m0 0h25l15 3 7 3-1 3 2 1-5-1-13-4-12-2-17-1z" fill="#E4AA78"/>
<path transform="translate(1219,252)" d="m0 0h2l-2 4-8 8-11 7-14 6-16 4-6 1h-10v-1l22-4 18-6 9-5h3v-2l4-2 7-8z" fill="#DEA073"/>
<path transform="translate(424,1014)" d="m0 0 17 1 43 3 1 3-17-1-44-4z" fill="#D7D5D1"/>
<path transform="translate(667,860)" d="m0 0h1l-1 9-8 23-3 5-4 2 3-9 9-24 1-5z" fill="#402530"/>
<path transform="translate(706,974)" d="m0 0h6l5 5v7h-8l-5-8z" fill="#864F52"/>
<path transform="translate(960,956)" d="m0 0 5 1 10 9 7 11 1 2v10h-1l-2-6-4-6-6-4-8-1v-1l12-1-3-5-9-7z" fill="#E4A978"/>
<path transform="translate(560,543)" d="m0 0h5l6 3-2 4-9 8-3 3 2-16z" fill="#D7C7BC"/>
<path transform="translate(961,793)" d="m0 0h1v9l-6 35-3 14h-1l1-15 6-35z" fill="#DFA274"/>
<path transform="translate(349,717)" d="m0 0h6l-3 3-12 1h-39l-4-2 43-1z" fill="#533238"/>
<path transform="translate(181,678)" d="m0 0 9 3 23 11 14 6-1 2-5-1-16-7-24-12z" fill="#442832"/>
<path transform="translate(956,980)" d="m0 0 2 2 3 12 2 4-1 1h-6l-4-1-2-7 3-3 2-1z" fill="#4C2C38"/>
<path transform="translate(324,785)" d="m0 0 6 1 25 6 16 3 5 2v1h-8l-16-4-19-4-9-3z" fill="#412631"/>
<path transform="translate(684,448)" d="m0 0 4 2 6 6-1 4-4-1 1 4-5-5-8-6 3-3z" fill="#502E39"/>
<path transform="translate(1208,181)" d="m0 0 6 2 3 4-2 5-1 1-7-1-2-3v-6z" fill="#492B34"/>
<path transform="translate(808 1e3)" d="m0 0h6l5 4 1 6-7-6h-5l2 10 5 1 5-2-1 4h-10l-4-5v-8z" fill="#D7BFB0"/>
<path transform="translate(308,728)" d="m0 0h37v2l-2 1h-30l-5-1z" fill="#402531"/>
<path transform="translate(539,951)" d="m0 0h2v7l-6 19-4 1 2-10 5-16z" fill="#3F2530"/>
<path transform="translate(739,462)" d="m0 0h2l5 5h4l2-3 2 1 1-2-1 9-4 4-4-1-1-3-4 1-1-6z" fill="#37202C"/>
<path transform="translate(1059,262)" d="m0 0 5 1 7 6 11 5 16 5v2l-6-1-18-6-7-5-7-2h-2z" fill="#3D232F"/>
<path transform="translate(706,970)" d="m0 0 9 2 1 5-4-2h-6l-1 3 4 7 8 1v1l-15 1-1-5h2v2h3l-4-7 1-6z" fill="#4C2B38"/>
<path transform="translate(756,836)" d="m0 0h2l1 4v40h-2l-1-31z" fill="#492A35"/>
<path transform="translate(775,668)" d="m0 0h2l-1 10-3 11-2 1 1-9h-2l-3 3 1-7 6-8z" fill="#432732"/>
<path transform="translate(571,991)" d="m0 0h5l7 6 1 5h-2l-3-5-4-2-5 1-1 2v8l4 4h-4l-4-6v-7l4-5z" fill="#F1E9E5"/>
<path transform="translate(757,1016)" d="m0 0 4 1 9 3 12 3 3 1v3h-8l-11-4-9-5z" fill="#492A37"/>
<path transform="translate(442,816)" d="m0 0 17 1 20 2 1 2h-18l-20-3z" fill="#442831"/>
<path transform="translate(855,756)" d="m0 0 1 3-7 31-4 4 1-8 4-14 3-13z" fill="#3E2430"/>
<path transform="translate(522,986)" d="m0 0 2 2 2 9 9 10 12 6v2l-9-3-9-6-6-8-1-3z" fill="#3F2530"/>
<path transform="translate(862,707)" d="m0 0h1l-1 16-3 21h-2l1-16 2-18z" fill="#422631"/>
<path transform="translate(868,622)" d="m0 0h2l2 9v5l-2 3h-3l-3-12 1-3h2z" fill="#864F52"/>
<path transform="translate(1091,99)" d="m0 0h14l11 6 6 7 4 8 2 5-1 3-8-15-5-6-11-6-12-1z" fill="#E1A778"/>
<path transform="translate(1185,74)" d="m0 0 9 1 4 2v2l7 1 7 4 6 2-4 2-10-4v-2l-8-2-5-2-5-1z" fill="#492A37"/>
<path transform="translate(486,655)" d="m0 0 2 4-10 10-6 4v-3l-2-1 8-7h2l2-4z" fill="#472935"/>
<path transform="translate(1079,324)" d="m0 0h3l-1 4-15 16-1-3 4-7h2v-2h2l2-4z" fill="#C97F60"/>
<path transform="translate(976,708)" d="m0 0h1l1 6v9l-2 14-4 4 2-18z" fill="#4B2C36"/>
<path transform="translate(672,864)" d="m0 0h1v7l-8 23h-3l1-6 4-10z" fill="#3D232F"/>
<path transform="translate(862,807)" d="m0 0 7 3-5 4-6 3-4-1 1-6z" fill="#864F52"/>
<path transform="translate(1049,86)" d="m0 0 3 1-1 5-6 3-5 5-7 9-2-4 5-5 3-4h2l1-4h3l2-1v-4z" fill="#482936"/>
<path transform="translate(994,987)" d="m0 0 1 2-3 8-9 6-7 2-4-1 2-2 13-5 4-5z" fill="#F5F2EF"/>
<path transform="translate(547,921)" d="m0 0h2l-1 11-4 15h-2l-1-6 2-4v-4h2l-1-3z" fill="#3D232F"/>
<path transform="translate(1265,232)" d="m0 0 1 2-7 8-7 4-4 2h-9v-2l12-3 9-6z" fill="#422630"/>
<path transform="translate(853,1009)" d="m0 0 2 1v2l4 1-1 6-3 1v2l-7 1 2-4z" fill="#502F39"/>
<path transform="translate(710,441)" d="m0 0 4 1-4 5-2 6-1 8-1-3h-2v-12h2l2-4z" fill="#502E3A"/>
<path transform="translate(750,749)" d="m0 0 1 2-3 40h-1v-32l2-9z" fill="#3E2430"/>
<path transform="translate(1216,112)" d="m0 0 5 1 3 4-1 5h-5l-3-3v-6z" fill="#3A212D"/>
<path transform="translate(1194,74)" d="m0 0 6 1 10 4v2l6 1 2 2-1 1h-5l-9-5-5-1v-2l-4-1z" fill="#432831"/>
<path transform="translate(844,977)" d="m0 0 5 5 3 5-1 3h-2v-2l-5 1-3-3z" fill="#492A37"/>
<path transform="translate(637,972)" d="m0 0 5 2 2 6-4 1-1 5-9-1 2-2 6-1-2-8z" fill="#512F3A"/>
<path transform="translate(575,999)" d="m0 0 4 1 2 3v5l-5 1-4-3 1-6z" fill="#D4D1CD"/>
<path transform="translate(588,996)" d="m0 0 2 2 2 10-1 5-5 1-2-4 3-3v-9z" fill="#56323C"/>
<path transform="translate(401,810)" d="m0 0 12 1 13 2 1 3-11-1-13-2-2-1z" fill="#4F3036"/>
<path transform="translate(185,687)" d="m0 0 9 3 9 4 6 2v2h-7l-17-8z" fill="#3D232F"/>
<path transform="translate(829,976)" d="m0 0 6 2 7 1 1 3-1 4-5-1-8-4z" fill="#402531"/>
<path transform="translate(912,781)" d="m0 0 1 2-4 7-4 1-1 4-6 2-2 4-4 4-2-1 14-15 6-5z" fill="#3C232F"/>
<path transform="translate(1099,149)" d="m0 0h5l2 2v5l-2 2h-5l-2-2 1-5z" fill="#D7C3B7"/>
<path transform="translate(831,830)" d="m0 0 3 1-1 4-9 12-4 4-3-1 7-8z" fill="#462834"/>
<path transform="translate(1275,168)" d="m0 0 3 3v25h-2l-1-5z" fill="#603A3D"/>
<path transform="translate(852,866)" d="m0 0h1l1 25v15h-2l-1-15v-19z" fill="#3B222E"/>
<path transform="translate(1070,82)" d="m0 0 4 1-6 2v2h-3v2l-5 1v2l-6 5h-3l2-4 4-3h2v-2z" fill="#E6C6AB"/>
<path transform="translate(583,992)" d="m0 0h3v2h2v13l-3 3-2-11-2-5z" fill="#3A222E"/>
<path transform="translate(917,952)" d="m0 0 6 1v3l-10 4h-3l-1-4z" fill="#854E51"/>
<path transform="translate(1054,464)" d="m0 0h1l-1 10-4 13h-2l1-10 4-12z" fill="#402530"/>
<path transform="translate(1183,81)" d="m0 0h7l11 4-1 3 2 1-5-1-13-4z" fill="#E8B180"/>
<path transform="translate(710,439)" d="m0 0h10l6 4 2 4-5-2-10-3h-5z" fill="#3A212D"/>
<path transform="translate(1209,264)" d="m0 0 2 1-5 6 4-1 3 3-7 4-3-1 2-1-1-3-3 1-1-3z" fill="#4D2C37"/>
<path transform="translate(606,999)" d="m0 0 3 1v4l4-1 1 4h-2v2h-6l-2-1 1-7z" fill="#E8AF7B"/>
<path transform="translate(801,971)" d="m0 0h14v1l-8 1-1 1 8 1v1l-17 1 2-5z" fill="#844E51"/>
<path transform="translate(744,928)" d="m0 0h1l-1 19-2 12h-1v-13l1-12z" fill="#38202C"/>
<path transform="translate(1119,66)" d="m0 0 3 1 3 2-11 2 5 5-6-1-5-2v-2l8-4z" fill="#DFA97F"/>
<path transform="translate(532,953)" d="m0 0h1v8l-1 5h-2l-1 4h-3l3-11 2-5z" fill="#492B33"/>
<path transform="translate(1105,63)" d="m0 0 3 1 3 2-10 3v2l-9-1 4-2z" fill="#4A2B36"/>
<path transform="translate(644,971)" d="m0 0 11 7 3 2v2l-5-1-5 2-2-7z" fill="#E7DCD4"/>
<path transform="translate(181,678)" d="m0 0 9 3 14 7v2l-4-1-11-5-8-4z" fill="#3C232F"/>
<path transform="translate(703,443)" d="m0 0 4 1-2 3-1 11h-3l-1-10 1-4z" fill="#3C222E"/>
<path transform="translate(839,997)" d="m0 0h8l5 2 3 5v6l-3-2-3-6-10-4z" fill="#E2AE83"/>
<path transform="translate(732,961)" d="m0 0 3 1v2l3 1-2 6h-6l-1-3z" fill="#874F52"/>
<path transform="translate(861,760)" d="m0 0h1v8l-5 19h-2l2-11z" fill="#3E242F"/>
<path transform="translate(823,502)" d="m0 0 16 8 4 1v2l6 1 2 2-7-1-16-8-5-3z" fill="#3B222E"/>
<path transform="translate(653,908)" d="m0 0 1 3-4 9-4 6-1-3 5-12z" fill="#492A37"/>
<path transform="translate(533,603)" d="m0 0h2l-2 4-7 9-10 13-1-3 10-12z" fill="#E0A474"/>
<path transform="translate(1059,447)" d="m0 0h2l-4 16-2 3-1-7 3-10z" fill="#452832"/>
<path transform="translate(760,670)" d="m0 0h1v32l-2 5h-1l1-15v-18z" fill="#864F52"/>
<path transform="translate(1093,305)" d="m0 0 2 1-4 4-5 4-5 5-4 2 1-4 6-5h2v-2z" fill="#EACDB1"/>
<path transform="translate(854,791)" d="m0 0h1l-1 11-3 8-2 1 1-8 3-11z" fill="#3D232F"/>
<path transform="translate(900,454)" d="m0 0h3l-2 9-5 5-2 1 2-6z" fill="#4B2D34"/>
<path transform="translate(636,993)" d="m0 0 4 4-2 5-4-1-2-4z" fill="#E0DFDC"/>
<path transform="translate(974,973)" d="m0 0 7 2 2 4v10h-1l-2-6-4-6z" fill="#DBC9BD"/>
<path transform="translate(528,589)" d="m0 0h6v3l-5 5-3 2 1-9z" fill="#A56558"/>
<path transform="translate(1030,118)" d="m0 0h3l-2 4-5 4-5 5h-2v-2h2l2-5z" fill="#E6AF7E"/>
<path transform="translate(1200,86)" d="m0 0 4 1 12 6v2l-11-3-3-2v-2h-2z" fill="#F3BF8B"/>
<path transform="translate(633,998)" d="m0 0 2 3h3l3-3v6l-6 3-3-1z" fill="#F8F5F3"/>
<path transform="translate(324,785)" d="m0 0 6 1 12 3 1 2h-7l-11-3z" fill="#3C232F"/>
<path transform="translate(170,696)" d="m0 0 3 1 3 6 6 9-1 3-6-8-5-9z" fill="#4F2F36"/>
<path transform="translate(638,469)" d="m0 0 6 1-1 3h2l1 4-4 2-3-3 2-2-5-3z" fill="#4B2B36"/>
<path transform="translate(1098,280)" d="m0 0 12 1 7 1-3 3-16-3z" fill="#442732"/>
<path transform="translate(1219,252)" d="m0 0h2l-2 4-8 8-6 4h-2v-2h3v-2l4-2 7-8z" fill="#EABA8E"/>
<path transform="translate(571,991)" d="m0 0h5l7 6 1 5h-2l-3-5-8-3z" fill="#EEE3DE"/>
<path transform="translate(885,505)" d="m0 0v3l-8 7-8 3h-2v-2l14-7z" fill="#E2A575"/>
<path transform="translate(754,445)" d="m0 0 4 1 1 3-10 5 1-6 1-2z" fill="#442733"/>
<path transform="translate(1093,288)" d="m0 0 10 1v2l-13 7h-3l7-5h2v-3z" fill="#DDB08F"/>
<path transform="translate(609,994)" d="m0 0 2 1 2 8-4 3v-2l-2-1 1-3-2-1 2-4z" fill="#D7D4D1"/>
<path transform="translate(1100,222)" d="m0 0h2l6 8 4 5 6 4-1 2-8-6-6-7z" fill="#E3A777"/>
<path transform="translate(1123,65)" d="m0 0h16l1 2-20 1z" fill="#E3C7B7"/>
<path transform="translate(941,985)" d="m0 0 4 1 5 5v4l-4-1-3-5v-2l-3-1z" fill="#E8E3DE"/>
<path transform="translate(427,814)" d="m0 0 14 1 1 3-13-1-2-1z" fill="#4B2D34"/>
<path transform="translate(810 1e3)" d="m0 0 6 1 3 3 1 6-7-6-4-2z" fill="#DBD4CD"/>
<path transform="translate(603 1e3)" d="m0 0 1 4 8 1v-2h2l1-3 1 5 3 1-16 1z" fill="#D5CDC6"/>
<path transform="translate(791,447)" d="m0 0 2 3 4 10v3l-3-1-4-11z" fill="#4C2D34"/>
<path transform="translate(578,987)" d="m0 0 4 1 3 4h-2l-1 3-5-2v-3l2-1z" fill="#53303B"/>
<path transform="translate(741,931)" d="m0 0 1 2-1 3 1 2v8h-1v-5l-5 1 1-4z" fill="#864F52"/>
<path transform="translate(480,820)" d="m0 0 13 1v2l-21-1v-1z" fill="#613C3D"/>
<path transform="translate(896,467)" d="m0 0 1 3-4 8-4 1 2-6 2-4z" fill="#472A32"/>
<path transform="translate(1269,130)" d="m0 0 2 3 3 11v4h-2l-4-16z" fill="#543238"/>
<path transform="translate(956,980)" d="m0 0 2 2 3 12 2 4-3-1-4-8z" fill="#6B3E45"/>
<path transform="translate(604,999)" d="m0 0h1v5h-2v7h-4l3-11z" fill="#F3ECE6"/>
<path transform="translate(538,931)" d="m0 0 1 4-3 11h-2l1-9z" fill="#412630"/>
<path transform="translate(641,931)" d="m0 0 2 1-3 7-3 2-2-1 2-5z" fill="#492A37"/>
<path transform="translate(397,706)" d="m0 0h3l-1 3-8 3-4-1 1-2z" fill="#492C33"/>
<path transform="translate(860,618)" d="m0 0h2l3 9v3h-2l-1 4z" fill="#55323B"/>
<path transform="translate(969,755)" d="m0 0h1l-1 9-1 8-2-3 1-10z" fill="#BD765D"/>
<path transform="translate(621,469)" d="m0 0 9 3v1l-8 1-1 2-2-2-1-3z" fill="#55313C"/>
<path transform="translate(704,458)" d="m0 0 1 3-2 8h-7l2-6 4 3v-6z" fill="#492A37"/>
<path transform="translate(955,987)" d="m0 0 2 3-3 5-1 3-2-2-1-5 3-3z" fill="#452834"/>
<path transform="translate(475,1018)" d="m0 0h9l1 3-17-1v-1z" fill="#D9D7D3"/>
<path transform="translate(650 1e3)" d="m0 0 2 2-1 5-5 4-1 2-5 1v-2l6-4 3-4z" fill="#DCCABE"/>
<path transform="translate(977,700)" d="m0 0 1 4-1 4h-2l-1 4-3 3 1-5z" fill="#CE8F6B"/>
<path transform="translate(515,700)" d="m0 0h1v18h-1l-1-10-2 3 1-7z" fill="#603841"/>
<path transform="translate(828,467)" d="m0 0 4 2 4 7 1 8-2-2-4-9-3-4z" fill="#DEA173"/>
<path transform="translate(1221,262)" d="m0 0m-1 1m-1 1m-4 1 4 1-4 6-4-1z" fill="#402630"/>
<path transform="translate(1225,247)" d="m0 0 2 1-3 1-2 4-3-2-5-1 1-2z" fill="#E2A676"/>
<path transform="translate(1257,124)" d="m0 0 2 3 4 11v5l-2-3-4-10z" fill="#E7AF80"/>
<path transform="translate(657,975)" d="m0 0 6 2 10 5-4 1-5-2-7-5z" fill="#492A37"/>
<path transform="translate(305,780)" d="m0 0 9 1 3 1 1 3-6-1-7-2z" fill="#422631"/>
<path transform="translate(293,776)" d="m0 0 9 1v2h2v2l-9-2-2-1z" fill="#3F2430"/>
<path transform="translate(512,630)" d="m0 0h2l-2 4-8 10-1-3 3-4h2l2-4z" fill="#DC9F72"/>
<path transform="translate(748,455)" d="m0 0h2l-1 8h-3l-4-6h3l1 2z" fill="#472A33"/>
<path transform="translate(1265,232)" d="m0 0 1 2-7 8-4 2 2-4 6-7z" fill="#3D242E"/>
<path transform="translate(1008,149)" d="m0 0 1 3-7 14-1-4z" fill="#E5C4A5"/>
<path transform="translate(1039,96)" d="m0 0m-1 1 2 3-7 9-2-4 5-5z" fill="#492A37"/>
<path transform="translate(477,664)" d="m0 0 3 3-8 6 1-5z" fill="#512E3A"/>
<path transform="translate(1076,319)" d="m0 0 1 3-4 5-5 5-2 1 2-4z" fill="#F0BC8A"/>
<path transform="translate(1111,76)" d="m0 0 8 4 4 3-1 2-11-6z" fill="#492A37"/>
<path transform="translate(827,840)" d="m0 0v3l-7 8-3-1 6-7z" fill="#3B222F"/>
<path transform="translate(419,696)" d="m0 0 2 1-5 5-5 1v-3z" fill="#523136"/>
<path transform="translate(864,678)" d="m0 0h1v10l-2 5h-1v-10z" fill="#452833"/>
<path transform="translate(1250,112)" d="m0 0h2l5 10-1 4-4-6z" fill="#E1C7B3"/>
<path transform="translate(808,1017)" d="m0 0 5 3 7-2-1 4h-10l-2-4z" fill="#D7C2B4"/>
<path transform="translate(898 1e3)" d="m0 0h13v2l-6 1-8-1z" fill="#492A37"/>
<path transform="translate(409,701)" d="m0 0 3 1-3 3-8 3 1-4z" fill="#482A33"/>
<path transform="translate(1121,113)" d="m0 0 4 4 3 8-1 3-6-12z" fill="#E0A374"/>
<path transform="translate(938,997)" d="m0 0h10l2 3h-11z" fill="#DDD0C6"/>
<path transform="translate(864,980)" d="m0 0 3 4 3 6-1 3-4-5-1-5z" fill="#482936"/>
<path transform="translate(964,938)" d="m0 0 3 1v11l-2-3-1-2z" fill="#452931"/>
<path transform="translate(953,846)" d="m0 0h1v8l-2 8h-1v-10z" fill="#D0906B"/>
<path transform="translate(850,810)" d="m0 0 1 3-3 10h-2l1-7 2-5z" fill="#452833"/>
<path transform="translate(286,780)" d="m0 0 11 4 1 2-7-1-5-3z" fill="#432731"/>
<path transform="translate(859,732)" d="m0 0h1v8l-1 4h-2v-8z" fill="#3B222E"/>
<path transform="translate(349,717)" d="m0 0h6l-3 3h-7l-5-1v-1z" fill="#633D3E"/>
<path transform="translate(1112,104)" d="m0 0 5 2 5 6-2 2-6-7-2-1z" fill="#EBB381"/>
<path transform="translate(851,990)" d="m0 0 4 2 4 5-2 4-6-9z" fill="#492A37"/>
<path transform="translate(540,945)" d="m0 0h2l1 6-2 3v-3l-3-1z" fill="#452833"/>
<path transform="translate(382,711)" d="m0 0h4v2l-6 2h-5l2-3z" fill="#40252F"/>
<path transform="translate(1067,268)" d="m0 0 6 2 6 3v2l-5-1-7-5z" fill="#3A212E"/>
<path transform="translate(1093,207)" d="m0 0h2v5h-3l-2 5-2 2 1-5z" fill="#E2A87A"/>
</svg>
